#!OML:ASF E:\VariousWalksJay\Project 1\Capture day 1\Session 1\Actor2.ASF
:FULLY-SPECIFIED
:DEGREES
470
root 9.19961 16.5874 6.76682 25.6097 -40.6113 -0.924813
lowerback 17.902 -4.70632 6.78566
upperback 13.4542 -5.62918 -2.02123
thorax 3.78972 -2.43099 -5.13723
lowerneck 3.80979 2.42821 2.41467
upperneck -18.3331 3.45974 -0.131329
head -6.13187 1.46972 -0.657063
rclavicle -4.69132e-014 -2.74323e-014
rhumerus -46.9761 21.094 -89.3642
rradius 69.7859
rwrist 13.6844
rhand -45.2233 15.8079
rfingers 7.12502
rthumb -17.9985 -13.3793
lclavicle -4.69132e-014 -2.74323e-014
lhumerus 13.6882 -50.8001 69.7915
lradius 86.0389
lwrist 30.2381
lhand -35.9209 -3.06501
lfingers 7.12502
lthumb -9.03349 26.7216
rfemur -61.5808 3.12965 26.582
rtibia 39.3529
rfoot -6.68305 -11.4975
rtoes 5.46625
lfemur -18.3997 10.5501 -27.5069
ltibia 54.1791
lfoot -5.57309 -6.57641
ltoes -25.8351
471
root 9.15783 16.5909 6.8245 25.5978 -40.5126 -1.02283
lowerback 18.3004 -4.73711 6.90185
upperback 13.5526 -5.63285 -1.97333
thorax 3.69635 -2.43075 -5.12756
lowerneck 3.74041 2.41664 2.39104
upperneck -18.4778 3.43807 -0.13643
head -6.16618 1.45783 -0.653698
rclavicle 3.26007e-014 -6.55989e-014
rhumerus -46.6843 21.2658 -89.2975
rradius 70.4146
rwrist 13.5806
rhand -45.1385 15.6374
rfingers 7.12502
rthumb -17.9169 -13.5573
lclavicle 3.26007e-014 -6.55989e-014
lhumerus 14.7131 -50.4233 68.9115
lradius 86.1229
lwrist 30.4793
lhand -35.9519 -2.94991
lfingers 7.12502
lthumb -9.06337 26.8354
rfemur -61.4482 3.21631 26.5416
rtibia 39.8021
rfoot -7.05043 -11.5971
rtoes 5.7246
lfemur -19.8707 10.6085 -27.3588
ltibia 57.243
lfoot -6.17094 -6.30952
ltoes -26.4047
472
root 9.11797 16.5904 6.87787 25.5394 -40.4068 -1.11597
lowerback 18.7485 -4.76627 6.99446
upperback 13.6682 -5.63432 -1.92091
thorax 3.60081 -2.43133 -5.09787
lowerneck 3.67163 2.40146 2.36987
upperneck -18.6378 3.41237 -0.137098
head -6.20562 1.44308 -0.649222
rclavicle 3.97569e-015 -3.69739e-014
rhumerus -46.3519 21.4637 -89.2138
rradius 71.0768
rwrist 13.4931
rhand -45.0475 15.4354
rfingers 7.12502
rthumb -17.8293 -13.7673
lclavicle 3.97569e-015 -3.69739e-014
lhumerus 15.8373 -50.0289 67.928
lradius 86.2236
lwrist 30.7659
lhand -36.0036 -2.82923
lfingers 7.12502
lthumb -9.1133 26.9539
rfemur -61.316 3.31811 26.4932
rtibia 40.3056
rfoot -7.44222 -11.7317
rtoes 5.96699
lfemur -21.4484 10.6866 -27.2112
ltibia 60.5361
lfoot -6.8171 -6.00268
ltoes -26.9768
473
root 9.07971 16.5856 6.92688 25.4242 -40.29 -1.19664
lowerback 19.2502 -4.79709 7.06052
upperback 13.8025 -5.63811 -1.86817
thorax 3.50229 -2.43499 -5.04999
lowerneck 3.60575 2.38353 2.35554
upperneck -18.8186 3.38451 -0.132309
head -6.25228 1.42588 -0.644234
rclavicle 3.18055e-015 -2.78299e-015
rhumerus -45.9759 21.6851 -89.1187
rradius 71.7701
rwrist 13.424
rhand -44.9611 15.2187
rfingers 7.12502
rthumb -17.7463 -13.9915
lclavicle 3.18055e-015 -2.78299e-015
lhumerus 17.0631 -49.6114 66.8295
lradius 86.3431
lwrist 31.1013
lhand -36.0692 -2.70254
lfingers 7.12502
lthumb -9.17662 27.0778
rfemur -61.1826 3.42158 26.4426
rtibia 40.8718
rfoot -7.86526 -11.8974
rtoes 6.1845
lfemur -23.1182 10.7812 -27.0623
ltibia 64.0318
lfoot -7.49959 -5.6712
ltoes -27.5641
474
root 9.043 16.5759 6.97144 25.2582 -40.1666 -1.26677
lowerback 19.8033 -4.82538 7.10251
upperback 13.9516 -5.63871 -1.81633
thorax 3.39879 -2.43887 -4.98765
lowerneck 3.54502 2.36001 2.35391
upperneck -19.0228 3.35029 -0.127326
head -6.30718 1.40407 -0.641149
rclavicle 1.11319e-014 1.74931e-014
rhumerus -45.5619 21.9182 -89.0115
rradius 72.4963
rwrist 13.371
rhand -44.8977 15.0091
rfingers 7.12502
rthumb -17.6852 -14.2066
lclavicle 1.11319e-014 1.74931e-014
lhumerus 18.3929 -49.1743 65.6136
lradius 86.4815
lwrist 31.4887
lhand -36.1418 -2.56005
lfingers 7.12502
lthumb -9.24667 27.2172
rfemur -61.057 3.53221 26.3916
rtibia 41.5073
rfoot -8.32494 -12.0992
rtoes 6.36912
lfemur -24.8782 10.8944 -26.9095
ltibia 67.7001
lfoot -8.19724 -5.3299
ltoes -28.0901
475
root 9.00763 16.5611 7.01206 25.0394 -40.037 -1.32799
lowerback 20.4068 -4.85418 7.12768
upperback 14.1157 -5.63932 -1.76916
thorax 3.29019 -2.44392 -4.9185
lowerneck 3.49155 2.33326 2.363
upperneck -19.25 3.31313 -0.120676
head -6.37072 1.37935 -0.639407
rclavicle 4.77083e-014 -2.5842e-014
rhumerus -45.1133 22.1613 -88.8952
rradius 73.2602
rwrist 13.339
rhand -44.8586 14.7843
rfingers 7.12502
rthumb -17.6476 -14.4348
lclavicle 4.77083e-014 -2.5842e-014
lhumerus 19.8287 -48.7065 64.2682
lradius 86.6398
lwrist 31.9306
lhand -36.2119 -2.4025
lfingers 7.12502
lthumb -9.31425 27.3717
rfemur -60.9359 3.6441 26.3471
rtibia 42.2162
rfoot -8.82706 -12.3322
rtoes 6.52023
lfemur -26.7117 11.0251 -26.7482
ltibia 71.5037
lfoot -8.89747 -4.99918
ltoes -28.5248
